<?xml version="1.0" ?><svg enable-background="new 0 0 32 32" id="Filled_Line" version="1.1" viewBox="0 0 32 32" xml:space="preserve" xmlns="http://www.w3.org/2000/svg" xmlns:xlink="http://www.w3.org/1999/xlink"><path d="M3.241,7.646L13,19v9l6-4v-5l9.759-11.354C29.315,6.996,28.848,6,27.986,6H4.014  C3.152,6,2.685,6.996,3.241,7.646z" fill="#F9ED69" id="XMLID_936_"/><path d="M17,20v5.333L19,24v-5h-1C17.448,19,17,19.448,17,20z" fill="#FBF4A5" id="XMLID_370_"/><path d="M27.986,6H4.014C3.152,6,2.685,6.996,3.241,7.646L3.546,8h22.44  c0.583,0,0.977,0.912,1.003,1.705l1.769-2.059C29.315,6.996,28.848,6,27.986,6z" fill="#FBF4A5" id="XMLID_371_"/><path d="M15,26.667V19L5.241,7.646C4.685,6.996,5.152,6,6.014,6h-2C3.152,6,2.685,6.996,3.241,7.646  L13,19v9L15,26.667z" fill="#BBB24F" id="XMLID_372_"/><path d="  M3.241,7.646L13,19v9l6-4v-5l9.759-11.354C29.315,6.996,28.848,6,27.986,6H4.014C3.152,6,2.685,6.996,3.241,7.646z" fill="none" id="XMLID_856_" stroke="#200F60" stroke-linecap="round" stroke-linejoin="round" stroke-miterlimit="10" stroke-width="2"/><polyline fill="none" id="XMLID_438_" points="  22,9 23.639,9 21,12.071 " stroke="#FFFFFF" stroke-linecap="round" stroke-linejoin="round" stroke-miterlimit="10" stroke-width="2"/></svg>